<?xml version="1.0" standalone="no"?>
 <!DOCTYPE svg PUBLIC "-//W3C//DTD SVG 1.1//EN" 
 "http://www.w3.org/Graphics/SVG/1.1/DTD/svg11.dtd"> 
<svg xmlns="http://www.w3.org/2000/svg" version="1.1" 
    width="29.7002cm" height="21.0007cm" viewBox="0 0 116930 82680 ">
<title>SVG Picture created as sousvide.sch.svg date 2018/04/21 20:49:09 </title>
  <desc>Picture generated by Eeschema-SVG </desc>
<g style="fill:#000000; fill-opacity:1;stroke:#000000; stroke-opacity:1;
stroke-linecap:round; stroke-linejoin:round; "
 transform="translate(0 0) scale(1 1)">
</g>
<g style="fill:#000000; fill-opacity:0.0; 
stroke:#000000; stroke-width:0; stroke-opacity:1; 
stroke-linecap:round; stroke-linejoin:round;">
</g>
<g style="fill:#840000; fill-opacity:0.0; 
stroke:#840000; stroke-width:0; stroke-opacity:1; 
stroke-linecap:round; stroke-linejoin:round;">
</g>
<g style="fill:#FFFFC2; fill-opacity:0.0; 
stroke:#FFFFC2; stroke-width:0; stroke-opacity:1; 
stroke-linecap:round; stroke-linejoin:round;">
</g>
<g style="fill:#FFFFC2; fill-opacity:0.6; 
stroke:#FFFFC2; stroke-width:0; stroke-opacity:1; 
stroke-linecap:round; stroke-linejoin:round;">
<rect x="48500" y="27500" width="4000" height="3000" rx="0" />
</g>
<g style="fill:#840000; fill-opacity:0.6; 
stroke:#840000; stroke-width:0; stroke-opacity:1; 
stroke-linecap:round; stroke-linejoin:round;">
</g>
<g style="fill:#840000; fill-opacity:0.0; 
stroke:#840000; stroke-width:100; stroke-opacity:1; 
stroke-linecap:round; stroke-linejoin:round;">
<rect x="48500" y="27500" width="4000" height="3000" rx="0" />
<polyline fill="none;"
points="49250,29250
49750,29250
" /> 
<polyline fill="none;"
points="51250,28750
51950,28750
" /> 
</g>
<g style="fill:#840000; fill-opacity:0.0; 
stroke:#840000; stroke-width:60; stroke-opacity:1; 
stroke-linecap:round; stroke-linejoin:round;">
<polyline fill="none;"
points="51400,30000
51400,29250
" /> 
<polyline fill="none;"
points="51400,30000
52500,30000
" /> 
<polyline fill="none;"
points="51400,28000
51400,28750
" /> 
<polyline fill="none;"
points="51400,28000
52500,28000
" /> 
</g>
<g style="fill:#840000; fill-opacity:0.0; 
stroke:#840000; stroke-width:100; stroke-opacity:1; 
stroke-linecap:round; stroke-linejoin:round;">
<polyline fill="none;"
points="51550,29250
50850,29250
" /> 
</g>
<g style="fill:#840000; fill-opacity:0.0; 
stroke:#840000; stroke-width:60; stroke-opacity:1; 
stroke-linecap:round; stroke-linejoin:round;">
<polyline fill="none;"
points="48500,28000
49500,28000
49500,28750
" /> 
<polyline fill="none;"
points="49500,29250
49500,30000
48500,30000
" /> 
</g>
<g style="fill:#840000; fill-opacity:1.0; 
stroke:#840000; stroke-width:100; stroke-opacity:1; 
stroke-linecap:round; stroke-linejoin:round;">
<polyline style="fill-rule:evenodd;"
points="49500,29250
49250,28750
49750,28750
49500,29250
" /> 
</g>
<g style="fill:#840000; fill-opacity:0.0; 
stroke:#840000; stroke-width:60; stroke-opacity:1; 
stroke-linecap:round; stroke-linejoin:round;">
<polyline fill="none;"
points="50050,28900
50260,28700
50260,28900
50560,28600
" /> 
<polyline fill="none;"
points="50560,28600
50360,28700
50460,28800
50560,28600
" /> 
</g>
<g style="fill:#840000; fill-opacity:1.0; 
stroke:#840000; stroke-width:100; stroke-opacity:1; 
stroke-linecap:round; stroke-linejoin:round;">
<polyline style="fill-rule:evenodd;"
points="51100,29250
51350,28750
50850,28750
51100,29250
" /> 
<polyline style="fill-rule:evenodd;"
points="51700,28750
51450,29250
51950,29250
51700,28750
" /> 
</g>
<g style="fill:#840000; fill-opacity:0.0; 
stroke:#840000; stroke-width:60; stroke-opacity:1; 
stroke-linecap:round; stroke-linejoin:round;">
<polyline fill="none;"
points="50050,29300
50260,29100
50260,29300
50560,29000
50360,29100
50460,29200
50560,29000
" /> 
<path d="M48500 28000
L47500 28000
" />
<path d="M48140 27880
L47860 27880
" />
<path d="M48000 27880
L48000 27380
L47950 27450
L47900 27500
L47860 27520
" />
<path d="M48500 30000
L47500 30000
" />
<path d="M47860 29420
L47880 29400
L47930 29380
L48050 29380
L48090 29400
L48120 29420
L48140 29470
L48140 29520
L48120 29590
L47830 29880
L48140 29880
" />
<path d="M52500 30000
L53500 30000
" />
<path d="M53090 29540
L53090 29880
" />
<path d="M52970 29350
L52860 29710
L53160 29710
" />
<path d="M52500 28000
L53500 28000
" />
<path d="M53090 27380
L53000 27380
L52950 27400
L52930 27420
L52880 27500
L52860 27590
L52860 27780
L52880 27830
L52900 27850
L52950 27880
L53050 27880
L53090 27850
L53120 27830
L53140 27780
L53140 27660
L53120 27610
L53090 27590
L53050 27570
L52950 27570
L52900 27590
L52880 27610
L52860 27660
" />
</g>
<g style="fill:#008484; fill-opacity:0.0; 
stroke:#008484; stroke-width:60; stroke-opacity:1; 
stroke-linecap:round; stroke-linejoin:round;">
<path d="M48620 26760
L48620 27160
L48640 27210
L48670 27230
L48710 27260
L48810 27260
L48860 27230
L48880 27210
L48900 27160
L48900 26760
" />
<path d="M49400 27260
L49120 27260
" />
<path d="M49260 27260
L49260 26760
L49210 26830
L49160 26880
L49120 26900
" />
<path d="M50620 27260
L50620 26760
L50790 27110
L50950 26760
L50950 27260
" />
<path d="M51280 26760
L51380 26760
L51430 26780
L51470 26830
L51500 26920
L51500 27090
L51470 27180
L51430 27230
L51380 27260
L51280 27260
L51240 27230
L51190 27180
L51170 27090
L51170 26920
L51190 26830
L51240 26780
L51280 26760
" />
<path d="M51990 27210
L51970 27230
L51900 27260
L51850 27260
L51780 27230
L51730 27180
L51710 27140
L51690 27040
L51690 26970
L51710 26880
L51730 26830
L51780 26780
L51850 26760
L51900 26760
L51970 26780
L51990 26800
" />
<path d="M52160 26760
L52470 26760
L52300 26950
L52380 26950
L52420 26970
L52450 26990
L52470 27040
L52470 27160
L52450 27210
L52420 27230
L52380 27260
L52230 27260
L52190 27230
L52160 27210
" />
<path d="M52780 26760
L52830 26760
L52880 26780
L52900 26800
L52930 26850
L52950 26950
L52950 27070
L52930 27160
L52900 27210
L52880 27230
L52830 27260
L52780 27260
L52740 27230
L52710 27210
L52690 27160
L52670 27070
L52670 26950
L52690 26850
L52710 26800
L52740 26780
L52780 26760
" />
<path d="M53410 26760
L53170 26760
L53150 26990
L53170 26970
L53220 26950
L53340 26950
L53380 26970
L53410 26990
L53430 27040
L53430 27160
L53410 27210
L53380 27230
L53340 27260
L53220 27260
L53170 27230
L53150 27210
" />
<path d="M53630 26800
L53650 26780
L53700 26760
L53820 26760
L53860 26780
L53890 26800
L53910 26850
L53910 26900
L53890 26970
L53600 27260
L53910 27260
" />
<path d="M54130 27260
L54130 26760
L54300 27110
L54460 26760
L54460 27260
" />
</g>
<g style="fill:#840084; fill-opacity:0.0; 
stroke:#840084; stroke-width:60; stroke-opacity:1; 
stroke-linecap:round; stroke-linejoin:round;">
<path d="M48620 31260
L48690 30760
L48810 30760
L48870 30780
L48920 30830
L48930 30880
L48940 30970
L48930 31040
L48900 31140
L48870 31180
L48820 31230
L48740 31260
L48620 31260
" />
<path d="M49120 31260
L49190 30760
" />
<path d="M49360 31260
L49430 30760
L49620 30760
L49660 30780
L49680 30800
L49690 30850
L49690 30920
L49660 30970
L49640 30990
L49580 31020
L49390 31020
" />
<path d="M49890 31070
L50270 31070
" />
<path d="M50760 30760
L50670 30760
L50610 30780
L50590 30800
L50530 30880
L50500 30970
L50480 31160
L50490 31210
L50510 31230
L50550 31260
L50650 31260
L50700 31230
L50730 31210
L50760 31160
L50770 31040
L50760 30990
L50730 30970
L50690 30950
L50590 30950
L50540 30970
L50520 30990
L50490 31040
" />
</g>
<g style="fill:#840084; fill-opacity:0.0; 
stroke:#840084; stroke-width:0; stroke-opacity:1; 
stroke-linecap:round; stroke-linejoin:round;">
</g>
<g style="fill:#840000; fill-opacity:0.0; 
stroke:#840000; stroke-width:0; stroke-opacity:1; 
stroke-linecap:round; stroke-linejoin:round;">
</g>
<g style="fill:#840000; fill-opacity:0.0; 
stroke:#840000; stroke-width:80; stroke-opacity:1; 
stroke-linecap:round; stroke-linejoin:round;">
<polyline fill="none;"
points="59500,30000
61500,30000
" /> 
<polyline fill="none;"
points="59500,29000
61500,29000
" /> 
</g>
<g style="fill:#840000; fill-opacity:0.0; 
stroke:#840000; stroke-width:60; stroke-opacity:1; 
stroke-linecap:round; stroke-linejoin:round;">
<polyline fill="none;"
points="60000,30500
60250,30000
" /> 
</g>
<g style="fill:#840000; fill-opacity:0.0; 
stroke:#840000; stroke-width:80; stroke-opacity:1; 
stroke-linecap:round; stroke-linejoin:round;">
<polyline fill="none;"
points="59500,29000
60000,30000
60500,29000
" /> 
<polyline fill="none;"
points="60500,30000
61000,29000
61500,30000
" /> 
</g>
<g style="fill:#840000; fill-opacity:0.0; 
stroke:#840000; stroke-width:60; stroke-opacity:1; 
stroke-linecap:round; stroke-linejoin:round;">
<path d="M60500 29000
L60500 28000
" />
<path d="M61080 28360
L61080 28640
" />
<path d="M61080 28500
L60580 28500
L60650 28550
L60700 28600
L60720 28640
" />
<path d="M60500 30000
L60500 31000
" />
<path d="M60620 30640
L60600 30620
L60580 30570
L60580 30450
L60600 30410
L60620 30380
L60670 30360
L60720 30360
L60790 30380
L61080 30670
L61080 30360
" />
<path d="M60000 30500
L59000 30500
" />
<path d="M59330 30580
L59640 30580
L59470 30770
L59550 30770
L59590 30790
L59620 30810
L59640 30860
L59640 30980
L59620 31030
L59590 31050
L59550 31080
L59400 31080
L59360 31050
L59330 31030
" />
</g>
<g style="fill:#008484; fill-opacity:0.0; 
stroke:#008484; stroke-width:60; stroke-opacity:1; 
stroke-linecap:round; stroke-linejoin:round;">
<path d="M62040 29240
L62110 29270
L62130 29290
L62150 29340
L62150 29410
L62130 29460
L62110 29480
L62060 29510
L61870 29510
L61870 29010
L62040 29010
L62080 29030
L62110 29050
L62130 29100
L62130 29150
L62110 29200
L62080 29220
L62040 29240
L61870 29240
" />
<path d="M62300 29010
L62580 29010
" />
<path d="M62440 29510
L62440 29010
" />
<path d="M63010 29510
L62730 29510
" />
<path d="M62870 29510
L62870 29010
L62820 29080
L62770 29130
L62730 29150
" />
<path d="M63180 29010
L63490 29010
L63320 29200
L63400 29200
L63440 29220
L63470 29240
L63490 29290
L63490 29410
L63470 29460
L63440 29480
L63400 29510
L63250 29510
L63210 29480
L63180 29460
" />
<path d="M63780 29220
L63730 29200
L63710 29170
L63690 29130
L63690 29100
L63710 29050
L63730 29030
L63780 29010
L63880 29010
L63920 29030
L63950 29050
L63970 29100
L63970 29130
L63950 29170
L63920 29200
L63880 29220
L63780 29220
L63730 29240
L63710 29270
L63690 29320
L63690 29410
L63710 29460
L63730 29480
L63780 29510
L63880 29510
L63920 29480
L63950 29460
L63970 29410
L63970 29320
L63950 29270
L63920 29240
L63880 29220
" />
<path d="M64190 29320
L64570 29320
" />
<path d="M65020 29010
L64930 29010
L64880 29030
L64860 29050
L64810 29130
L64790 29220
L64790 29410
L64810 29460
L64830 29480
L64880 29510
L64980 29510
L65020 29480
L65050 29460
L65070 29410
L65070 29290
L65050 29240
L65020 29220
L64980 29200
L64880 29200
L64830 29220
L64810 29240
L64790 29290
" />
<path d="M65380 29010
L65430 29010
L65480 29030
L65500 29050
L65530 29100
L65550 29200
L65550 29320
L65530 29410
L65500 29460
L65480 29480
L65430 29510
L65380 29510
L65340 29480
L65310 29460
L65290 29410
L65270 29320
L65270 29200
L65290 29100
L65310 29050
L65340 29030
L65380 29010
" />
<path d="M65860 29010
L65910 29010
L65960 29030
L65980 29050
L66010 29100
L66030 29200
L66030 29320
L66010 29410
L65980 29460
L65960 29480
L65910 29510
L65860 29510
L65820 29480
L65790 29460
L65770 29410
L65750 29320
L65750 29200
L65770 29100
L65790 29050
L65820 29030
L65860 29010
" />
</g>
<g style="fill:#008400; fill-opacity:0.0; 
stroke:#008400; stroke-width:60; stroke-opacity:1; 
stroke-linecap:round; stroke-linejoin:round;">
<path d="M53500 28000
L60500 28000
" />
</g>
<g style="fill:#008400; fill-opacity:0.0; 
stroke:#008400; stroke-width:0; stroke-opacity:1; 
stroke-linecap:round; stroke-linejoin:round;">
</g>
<g style="fill:#840000; fill-opacity:0.0; 
stroke:#840000; stroke-width:0; stroke-opacity:1; 
stroke-linecap:round; stroke-linejoin:round;">
</g>
<g style="fill:#840000; fill-opacity:0.0; 
stroke:#840000; stroke-width:100; stroke-opacity:1; 
stroke-linecap:round; stroke-linejoin:round;">
<rect x="55500" y="30100" width="2000" height="800" rx="0" />
</g>
<g style="fill:#840000; fill-opacity:0.0; 
stroke:#840000; stroke-width:60; stroke-opacity:1; 
stroke-linecap:round; stroke-linejoin:round;">
<path d="M57500 30500
L58000 30500
" />
<path d="M55500 30500
L55000 30500
" />
</g>
<g style="fill:#008484; fill-opacity:0.0; 
stroke:#008484; stroke-width:60; stroke-opacity:1; 
stroke-linecap:round; stroke-linejoin:round;">
<path d="M56410 31560
L56250 31320
" />
<path d="M56130 31560
L56130 31060
L56320 31060
L56370 31080
L56390 31100
L56410 31150
L56410 31220
L56390 31270
L56370 31290
L56320 31320
L56130 31320
" />
<path d="M56890 31560
L56610 31560
" />
<path d="M56750 31560
L56750 31060
L56700 31130
L56650 31180
L56610 31200
" />
<path d="M56030 30760
L55750 30760
" />
<path d="M55890 30760
L55890 30260
L55840 30330
L55790 30380
L55750 30400
" />
<path d="M56250 30710
L56270 30730
L56250 30760
L56230 30730
L56250 30710
L56250 30760
" />
<path d="M56730 30260
L56490 30260
L56470 30490
L56490 30470
L56540 30450
L56660 30450
L56700 30470
L56730 30490
L56750 30540
L56750 30660
L56730 30710
L56700 30730
L56660 30760
L56540 30760
L56490 30730
L56470 30710
" />
<path d="M56970 30760
L56970 30260
" />
<path d="M57250 30760
L57040 30470
" />
<path d="M57250 30260
L56970 30540
" />
</g>
<g style="fill:#008400; fill-opacity:0.0; 
stroke:#008400; stroke-width:60; stroke-opacity:1; 
stroke-linecap:round; stroke-linejoin:round;">
<path d="M52500 30000
L54000 30000
" />
<path d="M54000 30000
L54000 30500
" />
<path d="M58000 30500
L59000 30500
" />
</g>
<g style="fill:#008400; fill-opacity:0.0; 
stroke:#008400; stroke-width:0; stroke-opacity:1; 
stroke-linecap:round; stroke-linejoin:round;">
</g>
<g style="fill:#840000; fill-opacity:0.0; 
stroke:#840000; stroke-width:0; stroke-opacity:1; 
stroke-linecap:round; stroke-linejoin:round;">
</g>
<g style="fill:#840000; fill-opacity:0.0; 
stroke:#840000; stroke-width:100; stroke-opacity:1; 
stroke-linecap:round; stroke-linejoin:round;">
<rect x="60100" y="33000" width="800" height="2000" rx="0" />
</g>
<g style="fill:#840000; fill-opacity:0.0; 
stroke:#840000; stroke-width:60; stroke-opacity:1; 
stroke-linecap:round; stroke-linejoin:round;">
<polyline fill="none;"
points="60100,33400
60900,33400
" /> 
<polyline fill="none;"
points="60900,34600
60100,34600
" /> 
<polyline fill="none;"
points="60900,34200
60100,34200
" /> 
<polyline fill="none;"
points="60900,33800
60100,33800
" /> 
<path d="M60500 33000
L60500 32500
" />
<path d="M60500 35000
L60500 35500
" />
</g>
<g style="fill:#008484; fill-opacity:0.0; 
stroke:#008484; stroke-width:60; stroke-opacity:1; 
stroke-linecap:round; stroke-linejoin:round;">
<path d="M59960 35080
L59460 35080
" />
<path d="M59690 35080
L59690 34800
" />
<path d="M59960 34800
L59460 34800
" />
<path d="M59930 34370
L59960 34420
L59960 34510
L59930 34560
L59880 34580
L59690 34580
L59650 34560
L59620 34510
L59620 34420
L59650 34370
L59690 34350
L59740 34350
L59790 34580
" />
<path d="M59960 33920
L59690 33920
L59650 33940
L59620 33990
L59620 34080
L59650 34130
" />
<path d="M59930 33920
L59960 33960
L59960 34080
L59930 34130
L59880 34150
L59840 34150
L59790 34130
L59770 34080
L59770 33960
L59740 33920
" />
<path d="M59620 33750
L59620 33560
" />
<path d="M59460 33680
L59880 33680
L59930 33660
L59960 33610
L59960 33560
" />
<path d="M59930 33200
L59960 33250
L59960 33340
L59930 33390
L59880 33410
L59690 33410
L59650 33390
L59620 33340
L59620 33250
L59650 33200
L59690 33180
L59740 33180
L59790 33410
" />
<path d="M59960 32960
L59620 32960
" />
<path d="M59720 32960
L59670 32940
L59650 32910
L59620 32870
L59620 32820
" />
</g>
<g style="fill:#008400; fill-opacity:0.0; 
stroke:#008400; stroke-width:60; stroke-opacity:1; 
stroke-linecap:round; stroke-linejoin:round;">
<path d="M60500 31000
L60500 32500
" />
</g>
<g style="fill:#840000; fill-opacity:0.0; 
stroke:#840000; stroke-width:60; stroke-opacity:1; 
stroke-linecap:round; stroke-linejoin:round;">
<path d="M61000 36770
L61000 36170
L61350 36770
L61350 36170
" />
<path d="M61630 36460
L61830 36460
" />
<path d="M61920 36770
L61630 36770
L61630 36170
L61920 36170
" />
<path d="M62170 36170
L62170 36660
L62200 36710
L62230 36740
L62290 36770
L62400 36770
L62460 36740
L62490 36710
L62520 36660
L62520 36170
" />
<path d="M62720 36170
L63060 36170
" />
<path d="M62890 36770
L62890 36170
" />
<path d="M63610 36770
L63410 36490
" />
<path d="M63260 36770
L63260 36170
L63490 36170
L63550 36200
L63580 36230
L63610 36290
L63610 36370
L63580 36430
L63550 36460
L63490 36490
L63260 36490
" />
<path d="M63830 36600
L64120 36600
" />
<path d="M63780 36770
L63980 36170
L64180 36770
" />
<path d="M64660 36770
L64370 36770
L64370 36170
" />
</g>
<g style="fill:#840000; fill-opacity:0.0; 
stroke:#840000; stroke-width:100; stroke-opacity:1; 
stroke-linecap:round; stroke-linejoin:round;">
<polyline fill="none;"
points="60500,36500
60800,37040
64950,37040
64950,36500
64950,35960
60800,35960
60500,36500
" /> 
</g>
<g style="fill:#840000; fill-opacity:0.0; 
stroke:#840000; stroke-width:60; stroke-opacity:1; 
stroke-linecap:round; stroke-linejoin:round;">
</g>
<g style="fill:#008400; fill-opacity:0.0; 
stroke:#008400; stroke-width:60; stroke-opacity:1; 
stroke-linecap:round; stroke-linejoin:round;">
<path d="M60500 35500
L60500 36500
" />
</g>
<g style="fill:#840000; fill-opacity:0.0; 
stroke:#840000; stroke-width:60; stroke-opacity:1; 
stroke-linecap:round; stroke-linejoin:round;">
<path d="M61290 26770
L61000 26770
L61000 26170
" />
<path d="M61490 26770
L61490 26170
" />
<path d="M61700 26170
L61900 26770
L62100 26170
" />
<path d="M62290 26460
L62490 26460
" />
<path d="M62580 26770
L62290 26770
L62290 26170
L62580 26170
" />
</g>
<g style="fill:#840000; fill-opacity:0.0; 
stroke:#840000; stroke-width:100; stroke-opacity:1; 
stroke-linecap:round; stroke-linejoin:round;">
<polyline fill="none;"
points="60500,26500
60800,27040
62920,27040
62920,26500
62920,25960
60800,25960
60500,26500
" /> 
</g>
<g style="fill:#840000; fill-opacity:0.0; 
stroke:#840000; stroke-width:60; stroke-opacity:1; 
stroke-linecap:round; stroke-linejoin:round;">
</g>
<g style="fill:#008400; fill-opacity:0.0; 
stroke:#008400; stroke-width:60; stroke-opacity:1; 
stroke-linecap:round; stroke-linejoin:round;">
<path d="M60500 28000
L60500 26500
" />
<path d="M54000 30500
L55000 30500
" />
</g>
<g style="fill:#840000; fill-opacity:0.0; 
stroke:#840000; stroke-width:60; stroke-opacity:1; 
stroke-linecap:round; stroke-linejoin:round;">
<path d="M39390 28270
L39390 27670
L39590 28100
L39790 27670
L39790 28270
" />
<path d="M40080 28270
L40080 27670
" />
<path d="M40720 28210
L40690 28240
L40600 28270
L40540 28270
L40460 28240
L40400 28190
L40370 28130
L40340 28010
L40340 27930
L40370 27810
L40400 27760
L40460 27700
L40540 27670
L40600 27670
L40690 27700
L40720 27730
" />
<path d="M41320 28270
L41120 27990
" />
<path d="M40970 28270
L40970 27670
L41200 27670
L41260 27700
L41290 27730
L41320 27790
L41320 27870
L41290 27930
L41260 27960
L41200 27990
L40970 27990
" />
<path d="M41690 27670
L41800 27670
L41860 27700
L41920 27760
L41940 27870
L41940 28070
L41920 28190
L41860 28240
L41800 28270
L41690 28270
L41630 28240
L41570 28190
L41540 28070
L41540 27870
L41570 27760
L41630 27700
L41690 27670
" />
<path d="M42060 28330
L42520 28330
" />
<path d="M42980 27700
L42920 27670
L42830 27670
L42750 27700
L42690 27760
L42660 27810
L42630 27930
L42630 28010
L42660 28130
L42690 28190
L42750 28240
L42830 28270
L42890 28270
L42980 28240
L43010 28210
L43010 28010
L42890 28010
" />
<path d="M43260 28270
L43260 27670
L43490 27670
L43550 27700
L43580 27730
L43610 27790
L43610 27870
L43580 27930
L43550 27960
L43490 27990
L43260 27990
" />
<path d="M43860 28270
L43860 27670
" />
<path d="M44270 27670
L44380 27670
L44440 27700
L44500 27760
L44520 27870
L44520 28070
L44500 28190
L44440 28240
L44380 28270
L44270 28270
L44210 28240
L44150 28190
L44120 28070
L44120 27870
L44150 27760
L44210 27700
L44270 27670
" />
</g>
<g style="fill:#840000; fill-opacity:0.0; 
stroke:#840000; stroke-width:100; stroke-opacity:1; 
stroke-linecap:round; stroke-linejoin:round;">
<polyline fill="none;"
points="45000,28000
44700,27460
39020,27460
39020,28000
39020,28540
44700,28540
45000,28000
" /> 
</g>
<g style="fill:#840000; fill-opacity:0.0; 
stroke:#840000; stroke-width:60; stroke-opacity:1; 
stroke-linecap:round; stroke-linejoin:round;">
<path d="M37820 30270
L37820 29670
L38020 30100
L38220 29670
L38220 30270
" />
<path d="M38510 30270
L38510 29670
" />
<path d="M39150 30210
L39120 30240
L39030 30270
L38970 30270
L38890 30240
L38830 30190
L38800 30130
L38770 30010
L38770 29930
L38800 29810
L38830 29760
L38890 29700
L38970 29670
L39030 29670
L39120 29700
L39150 29730
" />
<path d="M39750 30270
L39550 29990
" />
<path d="M39400 30270
L39400 29670
L39630 29670
L39690 29700
L39720 29730
L39750 29790
L39750 29870
L39720 29930
L39690 29960
L39630 29990
L39400 29990
" />
<path d="M40120 29670
L40230 29670
L40290 29700
L40350 29760
L40370 29870
L40370 30070
L40350 30190
L40290 30240
L40230 30270
L40120 30270
L40060 30240
L40000 30190
L39970 30070
L39970 29870
L40000 29760
L40060 29700
L40120 29670
" />
<path d="M40490 30330
L40950 30330
" />
<path d="M41410 29700
L41350 29670
L41260 29670
L41180 29700
L41120 29760
L41090 29810
L41060 29930
L41060 30010
L41090 30130
L41120 30190
L41180 30240
L41260 30270
L41320 30270
L41410 30240
L41440 30210
L41440 30010
L41320 30010
" />
<path d="M42040 30270
L41840 29990
" />
<path d="M41690 30270
L41690 29670
L41920 29670
L41980 29700
L42010 29730
L42040 29790
L42040 29870
L42010 29930
L41980 29960
L41920 29990
L41690 29990
" />
<path d="M42410 29670
L42520 29670
L42580 29700
L42640 29760
L42660 29870
L42660 30070
L42640 30190
L42580 30240
L42520 30270
L42410 30270
L42350 30240
L42290 30190
L42260 30070
L42260 29870
L42290 29760
L42350 29700
L42410 29670
" />
<path d="M42920 29670
L42920 30160
L42950 30210
L42980 30240
L43040 30270
L43150 30270
L43210 30240
L43240 30210
L43270 30160
L43270 29670
" />
<path d="M43550 30270
L43550 29670
L43900 30270
L43900 29670
" />
<path d="M44180 30270
L44180 29670
L44330 29670
L44410 29700
L44470 29760
L44500 29810
L44530 29930
L44530 30010
L44500 30130
L44470 30190
L44410 30240
L44330 30270
L44180 30270
" />
</g>
<g style="fill:#840000; fill-opacity:0.0; 
stroke:#840000; stroke-width:100; stroke-opacity:1; 
stroke-linecap:round; stroke-linejoin:round;">
<polyline fill="none;"
points="45000,30000
44700,29460
37450,29460
37450,30000
37450,30540
44700,30540
45000,30000
" /> 
</g>
<g style="fill:#840000; fill-opacity:0.0; 
stroke:#840000; stroke-width:60; stroke-opacity:1; 
stroke-linecap:round; stroke-linejoin:round;">
</g>
<g style="fill:#008400; fill-opacity:0.0; 
stroke:#008400; stroke-width:60; stroke-opacity:1; 
stroke-linecap:round; stroke-linejoin:round;">
<path d="M47500 28000
L45000 28000
" />
<path d="M47500 30000
L45000 30000
" />
</g>
<g style="fill:#0000C2; fill-opacity:0.0; 
stroke:#0000C2; stroke-width:60; stroke-opacity:1; 
stroke-linecap:round; stroke-linejoin:round;">
</g>
<g style="fill:#0000C2; fill-opacity:0.0; 
stroke:#0000C2; stroke-width:60; stroke-opacity:1; 
stroke-linecap:round; stroke-linejoin:round;stroke-dasharray:136.85,158.425;">
<path d="M50500 19000
L50500 39500
" />
</g>
<g style="fill:#0000C2; fill-opacity:0.0; 
stroke:#0000C2; stroke-width:60; stroke-opacity:1; 
stroke-linecap:round; stroke-linejoin:round;">
<path d="M51640 22160
L51840 22160
" />
<path d="M51930 22470
L51640 22470
L51640 21870
L51930 21870
" />
<path d="M52180 22070
L52180 22470
" />
<path d="M52180 22130
L52210 22100
L52270 22070
L52350 22070
L52410 22100
L52440 22160
L52440 22470
" />
<path d="M52690 22440
L52750 22470
L52870 22470
L52920 22440
L52950 22390
L52950 22360
L52920 22300
L52870 22270
L52780 22270
L52720 22240
L52690 22190
L52690 22160
L52720 22100
L52780 22070
L52870 22070
L52920 22100
" />
<path d="M53470 22070
L53470 22470
" />
<path d="M53210 22070
L53210 22390
L53240 22440
L53300 22470
L53380 22470
L53440 22440
L53470 22410
" />
<path d="M53750 22470
L53750 22070
" />
<path d="M53750 22190
L53780 22130
L53810 22100
L53870 22070
L53920 22070
" />
<path d="M54350 22440
L54290 22470
L54180 22470
L54120 22440
L54090 22390
L54090 22160
L54120 22100
L54180 22070
L54290 22070
L54350 22100
L54380 22160
L54380 22210
L54090 22270
" />
<path d="M55350 22470
L55350 22160
L55320 22100
L55260 22070
L55150 22070
L55090 22100
" />
<path d="M55350 22440
L55290 22470
L55150 22470
L55090 22440
L55060 22390
L55060 22330
L55090 22270
L55150 22240
L55290 22240
L55350 22210
" />
<path d="M55890 22470
L55890 21870
" />
<path d="M55890 22440
L55830 22470
L55720 22470
L55660 22440
L55630 22410
L55600 22360
L55600 22190
L55630 22130
L55660 22100
L55720 22070
L55830 22070
L55890 22100
" />
<path d="M56400 22440
L56340 22470
L56230 22470
L56170 22440
L56140 22390
L56140 22160
L56170 22100
L56230 22070
L56340 22070
L56400 22100
L56430 22160
L56430 22210
L56140 22270
" />
<path d="M56940 22070
L56940 22670
" />
<path d="M56940 22440
L56880 22470
L56770 22470
L56710 22440
L56680 22410
L56650 22360
L56650 22190
L56680 22130
L56710 22100
L56770 22070
L56880 22070
L56940 22100
" />
<path d="M57480 22070
L57480 22470
" />
<path d="M57220 22070
L57220 22390
L57250 22440
L57310 22470
L57390 22470
L57450 22440
L57480 22410
" />
<path d="M58020 22470
L58020 22160
L57990 22100
L57930 22070
L57820 22070
L57760 22100
" />
<path d="M58020 22440
L57960 22470
L57820 22470
L57760 22440
L57730 22390
L57730 22330
L57760 22270
L57820 22240
L57960 22240
L58020 22210
" />
<path d="M58220 22070
L58450 22070
" />
<path d="M58300 21870
L58300 22390
L58330 22440
L58390 22470
L58450 22470
" />
<path d="M58870 22440
L58810 22470
L58700 22470
L58640 22440
L58610 22390
L58610 22160
L58640 22100
L58700 22070
L58810 22070
L58870 22100
L58900 22160
L58900 22210
L58610 22270
" />
<path d="M59610 22470
L59610 21870
L59840 21870
L59900 21900
L59930 21930
L59960 21990
L59960 22070
L59930 22130
L59900 22160
L59840 22190
L59610 22190
" />
<path d="M60560 22410
L60530 22440
L60440 22470
L60380 22470
L60300 22440
L60240 22390
L60210 22330
L60180 22210
L60180 22130
L60210 22010
L60240 21960
L60300 21900
L60380 21870
L60440 21870
L60530 21900
L60560 21930
" />
<path d="M61010 22160
L61100 22190
L61130 22210
L61160 22270
L61160 22360
L61130 22410
L61100 22440
L61040 22470
L60810 22470
L60810 21870
L61010 21870
L61070 21900
L61100 21930
L61130 21990
L61130 22040
L61100 22100
L61070 22130
L61010 22160
L60810 22160
" />
<path d="M61870 22470
L61870 22070
" />
<path d="M61870 21870
L61840 21900
L61870 21930
L61900 21900
L61870 21870
L61870 21930
" />
<path d="M62130 22440
L62190 22470
L62310 22470
L62360 22440
L62390 22390
L62390 22360
L62360 22300
L62310 22270
L62220 22270
L62160 22240
L62130 22190
L62130 22160
L62160 22100
L62220 22070
L62310 22070
L62360 22100
" />
<path d="M62740 22470
L62680 22440
L62650 22410
L62620 22360
L62620 22190
L62650 22130
L62680 22100
L62740 22070
L62820 22070
L62880 22100
L62910 22130
L62940 22190
L62940 22360
L62910 22410
L62880 22440
L62820 22470
L62740 22470
" />
<path d="M63280 22470
L63220 22440
L63190 22390
L63190 21870
" />
<path d="M63760 22470
L63760 22160
L63730 22100
L63670 22070
L63560 22070
L63500 22100
" />
<path d="M63760 22440
L63700 22470
L63560 22470
L63500 22440
L63470 22390
L63470 22330
L63500 22270
L63560 22240
L63700 22240
L63760 22210
" />
<path d="M63960 22070
L64190 22070
" />
<path d="M64040 21870
L64040 22390
L64070 22440
L64130 22470
L64190 22470
" />
<path d="M64380 22470
L64380 22070
" />
<path d="M64380 21870
L64350 21900
L64380 21930
L64410 21900
L64380 21870
L64380 21930
" />
<path d="M64760 22470
L64700 22440
L64670 22410
L64640 22360
L64640 22190
L64670 22130
L64700 22100
L64760 22070
L64840 22070
L64900 22100
L64930 22130
L64960 22190
L64960 22360
L64930 22410
L64900 22440
L64840 22470
L64760 22470
" />
<path d="M65210 22070
L65210 22470
" />
<path d="M65210 22130
L65240 22100
L65300 22070
L65380 22070
L65440 22100
L65470 22160
L65470 22470
" />
</g> 
</svg>
